<?xml version="1.0" encoding="UTF-8"?>
<svg version="1.1" xmlns="http://www.w3.org/2000/svg" width="1024" height="1024">
<path d="M0 0 C337.92 0 675.84 0 1024 0 C1024 337.92 1024 675.84 1024 1024 C686.08 1024 348.16 1024 0 1024 C0 686.08 0 348.16 0 0 Z " fill="#253144" transform="translate(0,0)"/>
<path d="M0 0 C0.66 0 1.32 0 2 0 C2.07019348 25.57418328 2.12303878 51.14835205 2.15543652 76.72261238 C2.17088159 88.59814812 2.19192591 100.47362387 2.22631836 112.34912109 C2.25629304 122.70415981 2.27559214 133.05915506 2.28226548 143.41423595 C2.28616409 148.89320755 2.29527696 154.37205486 2.31719017 159.85098648 C2.33768293 165.0170391 2.34380813 170.18291724 2.33932304 175.34900665 C2.34014256 177.23627803 2.34603148 179.12355578 2.35761642 181.01079178 C2.42049205 191.79005988 1.85334554 201.53457016 -1 212 C-1.19200894 212.72105989 -1.38401789 213.44211979 -1.58184528 214.18502998 C-6.20403325 230.27530085 -16.40760224 243.99706411 -30.9375 252.375 C-47.35416165 261.45100493 -66.42699174 264.33662358 -84.75 259.375 C-86.85470616 258.64204308 -88.94079214 257.85245345 -91 257 C-92.00675781 256.5875 -93.01351562 256.175 -94.05078125 255.75 C-111.14976727 247.94345904 -123.61134147 233.72483048 -136.52734375 220.52026367 C-139.00250919 217.9974425 -141.49851708 215.49669641 -144 213 C-144.59683594 212.3915625 -145.19367188 211.783125 -145.80859375 211.15625 C-148.45346714 208.46697826 -151.06762379 205.94505567 -154 203.5625 C-157.12069331 200.8969078 -159.62265705 198.03421884 -162.26953125 194.9140625 C-163.82346478 193.19526469 -165.36655516 191.79689648 -167.1875 190.375 C-170 188 -170 188 -171.8125 185.125 C-174.38881911 181.44454413 -177.31426602 179.31905059 -180.890625 176.66015625 C-183.37338296 174.70613378 -185.1303927 172.53732419 -187 170 C-189.61458938 167.24780066 -192.28942573 164.74062633 -195.25 162.375 C-198 160 -198 160 -199 157 C-199.66 157 -200.32 157 -201 157 C-202.25363377 155.5154337 -203.50317057 154.02681969 -204.71484375 152.5078125 C-205.99564411 150.8907331 -205.99564411 150.8907331 -207.9375 149.5625 C-209.96178096 148.02895382 -211.32106309 146.50882199 -212.9375 144.5625 C-214.70804201 142.43784958 -216.25714027 140.79560645 -218.4375 139.0625 C-221.38704079 136.68847936 -223.65162412 134.02318158 -226.10546875 131.15234375 C-229.23356286 127.59857085 -232.62186034 124.31386216 -236 121 C-239.33333333 117.66666667 -242.66666667 114.33333333 -246 111 C-246.99 110.0409375 -246.99 110.0409375 -248 109.0625 C-255 101.84375 -255 101.84375 -255 99 C-255.598125 98.87625 -256.19625 98.7525 -256.8125 98.625 C-259 98 -259 98 -262 96 C-261.92935333 96.77125214 -261.85870667 97.54250427 -261.78591919 98.33712769 C-260.89918397 109.11178426 -260.85493241 119.82843468 -260.8671875 130.6328125 C-260.86599988 132.64895143 -260.86447586 134.66509019 -260.86264038 136.68122864 C-260.85890443 143.16249967 -260.86646487 149.64373539 -260.875 156.125 C-260.8772718 158.34799191 -260.87950965 160.57098385 -260.88171387 162.79397583 C-260.8976939 177.17512076 -260.93558099 191.5561342 -260.98884583 205.93718719 C-260.9995672 208.88115757 -261.00934422 211.82512971 -261.0189209 214.769104 C-261.05276254 224.69919804 -261.10981524 234.62862859 -261.20953369 244.55828857 C-261.23832979 247.46768349 -261.25824768 250.37692713 -261.27044678 253.28643799 C-261.28786665 257.26293839 -261.33711195 261.2386556 -261.390625 265.21484375 C-261.39186371 266.36733109 -261.39310242 267.51981842 -261.39437866 268.70722961 C-261.4239415 270.27515511 -261.4239415 270.27515511 -261.45410156 271.87475586 C-261.46742523 273.22554482 -261.46742523 273.22554482 -261.48101807 274.60362244 C-262.16797865 277.77563446 -263.5010356 278.99312313 -266 281 C-280.39394866 283.8619547 -296.88377276 277.2964306 -309 270 C-312.53887832 267.53395036 -315.79388867 264.88202788 -319 262 C-319.91652344 261.22269531 -319.91652344 261.22269531 -320.8515625 260.4296875 C-330.61557832 251.55736262 -340.46065302 235.49652206 -341.15234375 222.03515625 C-341.10207031 221.36355469 -341.05179687 220.69195313 -341 220 C-341.66 220 -342.32 220 -343 220 C-344.77451669 212.68617768 -345.26831977 205.82338758 -345.18286133 198.31494141 C-345.17821869 197.1915889 -345.17357605 196.06823639 -345.16879272 194.9108429 C-345.15052184 191.22426275 -345.11697843 187.53801959 -345.08203125 183.8515625 C-345.06344967 181.27143699 -345.04536582 178.69130786 -345.02775574 176.11117554 C-344.98834203 170.71302751 -344.94116759 165.31502429 -344.88842773 159.91699219 C-344.82793404 153.70614824 -344.78565247 147.49536984 -344.75240308 141.28432524 C-344.71950477 135.27422424 -344.67025668 129.26437627 -344.61469078 123.25443649 C-344.59308061 120.71333598 -344.57595338 118.17219301 -344.56351662 115.63103104 C-344.54433795 112.06835102 -344.50648776 108.50631758 -344.46411133 104.94384766 C-344.46240433 103.90866501 -344.46069733 102.87348236 -344.4589386 101.80693054 C-344.22908839 87.1102449 -338.9401957 74.63973754 -332.30859375 61.7734375 C-331.2092168 59.4434147 -330.49039884 57.43344331 -329.9375 54.9375 C-329 52 -329 52 -326.5625 50.25 C-325.716875 49.8375 -324.87125 49.425 -324 49 C-322.98090572 48.01946604 -321.9825693 47.01713204 -321 46 C-318.70434948 43.95468724 -316.3529413 41.97885616 -314 40 C-313.319375 39.401875 -312.63875 38.80375 -311.9375 38.1875 C-309.36751436 36.61234751 -306.96664381 36.33711861 -304 36 C-304 35.34 -304 34.68 -304 34 C-283.79776913 23.76211898 -259.27844293 23.80155268 -237.9375 30.625 C-226.67726627 34.45355141 -216.80792939 39.94168162 -208 48 C-207.2265625 48.4640625 -206.453125 48.928125 -205.65625 49.40625 C-198.42454285 53.74527429 -192.23989058 59.15231194 -187.4609375 66.0859375 C-184.11092047 70.47499725 -179.56693808 73.81609123 -175.1875 77.125 C-173 79 -173 79 -171.6875 81.3125 C-170.08249244 83.86862315 -168.7970387 85.14695236 -166.51953125 87.0546875 C-161.45087104 91.41465966 -156.72765541 96.08847566 -152 100.8125 C-151.12988281 101.67037109 -150.25976562 102.52824219 -149.36328125 103.41210938 C-148.13158203 104.6409082 -148.13158203 104.6409082 -146.875 105.89453125 C-146.12992188 106.63550049 -145.38484375 107.37646973 -144.6171875 108.13989258 C-143 110 -143 110 -143 112 C-142.46117187 112.19980469 -141.92234375 112.39960938 -141.3671875 112.60546875 C-137.976707 114.60283102 -135.71047969 117.37859924 -133.125 120.3125 C-130.17619856 123.64215687 -127.28771673 126.85818244 -123.83203125 129.671875 C-121.42212564 131.65298361 -119.52889806 133.53957318 -117.5625 135.9375 C-114.78950668 139.2012886 -111.85690018 141.9148317 -108.55859375 144.6328125 C-106.39932462 146.52690823 -104.74757486 148.72815269 -103 151 C-100.64522105 153.47553685 -98.341823 155.73913508 -95.625 157.8125 C-92.653752 160.28854 -90.30530557 163.02755553 -87.84375 166 C-85.63067551 168.50142833 -85.63067551 168.50142833 -81 172 C-80.67 129.1 -80.34 86.2 -80 42 C-73.14779435 40.62955887 -66.54601984 39.50020986 -59.63867188 38.7890625 C-55.76446878 38.3506161 -52.57562719 37.51885049 -49 36 C-48.01 36 -47.02 36 -46 36 C-46 35.34 -46 34.68 -46 34 C-45.18917969 33.72027344 -44.37835937 33.44054687 -43.54296875 33.15234375 C-26.427067 26.95555045 -12.76436556 16.36998775 -1.6875 2 C-1.130625 1.34 -0.57375 0.68 0 0 Z " fill="#8F9EEF" transform="translate(702,308)"/>
<path d="M0 0 C1.42542583 -0.00302516 2.85085003 -0.00691647 4.2762714 -0.01159257 C8.17005576 -0.02183314 12.06374764 -0.01970093 15.95753944 -0.01541197 C20.16537767 -0.01293777 24.37319403 -0.02196715 28.58102417 -0.02944946 C36.81304809 -0.04217612 45.04503936 -0.04399295 53.27707147 -0.0416492 C59.96493104 -0.03986475 66.65278072 -0.04161838 73.34063911 -0.04587364 C74.29314231 -0.04646883 75.24564551 -0.04706402 76.22701244 -0.04767724 C78.16202791 -0.048889 80.09704338 -0.05010313 82.03205884 -0.05131962 C100.16081044 -0.06218587 118.28954341 -0.06003613 136.41829605 -0.05393478 C153.0152304 -0.04875805 169.61210619 -0.06004257 186.20902895 -0.07903299 C203.25108259 -0.0983835 220.29310848 -0.10667284 237.33517319 -0.10290974 C246.90318072 -0.10099453 256.47113831 -0.103517 266.03913689 -0.11762428 C274.17782046 -0.12950304 282.31642331 -0.13098203 290.45510792 -0.11883412 C294.60942323 -0.11292264 298.76359059 -0.11190846 302.91789627 -0.12383652 C306.7166678 -0.13461756 310.51516646 -0.1316859 314.3139248 -0.11757483 C315.69186649 -0.11490644 317.06982904 -0.1173609 318.44775038 -0.1253107 C320.31330581 -0.13533139 322.17893745 -0.12525498 324.04448605 -0.1140337 C325.60213174 -0.11411622 325.60213174 -0.11411622 327.19124502 -0.11420041 C329.7580719 0.26069641 329.7580719 0.26069641 331.58991772 1.63052207 C333.27277527 3.97897165 333.16269004 5.77420481 333.19166565 8.64350891 C333.20858459 10.25914734 333.20858459 10.25914734 333.22584534 11.90742493 C333.2158551 13.05525452 333.20586487 14.20308411 333.1955719 15.38569641 C333.18944885 16.55608459 333.18332581 17.72647278 333.17701721 18.93232727 C332.7803121 41.12492668 325.26901948 59.55334504 309.25001526 75.16645813 C301.20060859 82.75441774 293.1538786 86.62733611 282.7580719 90.26069641 C281.92791565 90.57136047 281.0977594 90.88202454 280.2424469 91.20210266 C270.73189653 94.64385778 261.01810632 94.4061124 251.02418518 94.39009094 C249.65828403 94.39144841 248.29238325 94.39323027 246.92648315 94.395401 C243.24303861 94.39993169 239.5596223 94.39820454 235.87617731 94.39502192 C232.01388126 94.39247875 228.15158753 94.394841 224.28929138 94.39640808 C217.8117581 94.39822276 211.33423626 94.39584051 204.85670471 94.3910675 C197.36699643 94.38561243 189.87731533 94.38739937 182.38760769 94.39289391 C175.94836447 94.39742859 169.50912944 94.39807426 163.06988513 94.39545524 C159.22738822 94.3938962 155.38490409 94.3936888 151.54240799 94.39699173 C147.93577738 94.39987605 144.32918196 94.39788441 140.72255516 94.39209747 C138.76586328 94.3901412 136.80916842 94.39311805 134.85247803 94.39622498 C133.69179306 94.39340515 132.53110809 94.39058533 131.33525085 94.38768005 C130.3246718 94.38730303 129.31409275 94.386926 128.27289009 94.38653755 C125.7580719 94.26069641 125.7580719 94.26069641 122.7580719 93.26069641 C122.4280719 93.92069641 122.0980719 94.58069641 121.7580719 95.26069641 C121.11998596 95.09569641 120.48190002 94.93069641 119.82447815 94.76069641 C115.75246469 94.09672479 111.81307075 94.20249855 107.6955719 94.26069641 C96.91635424 94.34394822 86.15634472 94.07668025 75.3830719 93.76069641 C74.56055939 93.73668762 73.73804688 93.71267883 72.89060974 93.6879425 C68.17963277 93.54965931 63.4688061 93.40700701 58.7580719 93.26069641 C58.4280719 93.92069641 58.0980719 94.58069641 57.7580719 95.26069641 C56.87635315 95.09698547 55.9946344 94.93327454 55.0861969 94.76460266 C49.26005144 93.9329248 43.37901612 94.15607595 37.5080719 94.19819641 C36.32471252 94.20270813 35.14135315 94.20721985 33.9221344 94.21186829 C31.7395069 94.22056897 29.55688592 94.23132699 27.37428284 94.24482727 C23.62703938 94.26755691 19.88042007 94.25247314 16.13317871 94.23504639 C12.98479489 94.22176818 9.83640517 94.21356789 6.68800354 94.20576477 C5.0245857 94.20071374 3.36117235 94.19387394 1.69776917 94.18525696 C-0.70010973 94.17316442 -3.0979306 94.16746425 -5.49583435 94.16304016 C-6.61460716 94.15529823 -6.61460716 94.15529823 -7.75598145 94.1473999 C-11.62614381 94.07255374 -11.62614381 94.07255374 -15.2419281 95.26069641 C-16.2319281 94.76569641 -16.2319281 94.76569641 -17.2419281 94.26069641 C-18.85468628 94.16219277 -20.47139174 94.12517103 -22.08714294 94.11885071 C-23.09513947 94.11181625 -24.10313599 94.1047818 -25.14167786 94.09753418 C-26.23436981 94.0933699 -27.32706177 94.08920563 -28.4528656 94.08491516 C-30.75235395 94.06171987 -33.05183315 94.03760265 -35.3513031 94.01264954 C-38.98775881 93.97749451 -42.62387762 93.9481708 -46.26048279 93.93476868 C-49.76252796 93.91932547 -53.26358129 93.87913906 -56.7653656 93.83491516 C-58.39833084 93.83777779 -58.39833084 93.83777779 -60.06428528 93.84069824 C-61.07858612 93.82420731 -62.09288696 93.80771637 -63.13792419 93.79072571 C-64.02901886 93.78485947 -64.92011353 93.77899323 -65.83821106 93.77294922 C-69.02491511 93.09383513 -70.23546004 91.77734135 -72.2419281 89.26069641 C-72.74363708 86.36665344 -72.74363708 86.36665344 -72.73802185 83.01850891 C-72.73866638 81.78616516 -72.73931091 80.55382141 -72.73997498 79.28413391 C-72.71999451 77.99764954 -72.70001404 76.71116516 -72.6794281 75.38569641 C-72.68651794 74.13788391 -72.69360779 72.89007141 -72.70091248 71.60444641 C-72.62183659 59.85255273 -71.13159696 48.40097146 -65.4919281 37.94819641 C-65.14267273 37.27796448 -64.79341736 36.60773254 -64.43357849 35.91719055 C-61.57194403 30.56774166 -58.31855639 25.76841643 -54.2419281 21.26069641 C-53.71212341 20.65096985 -53.18231873 20.04124329 -52.63645935 19.41304016 C-38.64226851 4.28867714 -19.75181078 -0.05710077 0 0 Z " fill="#6995E0" transform="translate(370.24192810058594,212.7393035888672)"/>
<path d="M0 0 C6.166875 -0.103125 12.33375 -0.20625 18.6875 -0.3125 C20.60522217 -0.35802002 22.52294434 -0.40354004 24.4987793 -0.45043945 C37.19178809 -0.62557455 48.68942595 0.66875584 58.28515625 9.98046875 C65.22848477 18.15746384 68.3964352 26.70683659 68.3125 37.375 C68.30686035 38.12595947 68.3012207 38.87691895 68.29541016 39.65063477 C68.17298686 45.24028868 67.55019983 49.95734071 65 55 C64.37931641 56.26070312 64.37931641 56.26070312 63.74609375 57.546875 C58.83355495 66.59558408 51.71427425 71.74521739 42 75 C28.18657136 77.30223811 14.00396769 76 0 76 C0 50.92 0 25.84 0 0 Z " fill="#CDC6FA" transform="translate(348,769)"/>
<path d="M0 0 C5.61 0 11.22 0 17 0 C17 30.69 17 61.38 17 93 C11.06 93 5.12 93 -1 93 C-7.05996513 85.19866558 -7.05996513 85.19866558 -8.73828125 81.53125 C-10.83476261 77.20845721 -13.33320578 73.39934178 -16.125 69.5 C-22.99641471 59.65315205 -29.60843354 49.63177563 -36.25170898 39.63037109 C-38.16501724 36.75172522 -40.08268212 33.87597682 -42 31 C-42.33 51.46 -42.66 71.92 -43 93 C-48.61 93 -54.22 93 -60 93 C-60 62.64 -60 32.28 -60 1 C-42 1 -42 1 -37.48486328 4.66162109 C-35.84695435 7.09432983 -35.84695435 7.09432983 -34.3203125 9.7734375 C-33.43567825 11.14104721 -33.43567825 11.14104721 -32.53317261 12.5362854 C-30.66831846 15.44840335 -28.89735978 18.40588552 -27.125 21.375 C-25.91737105 23.29799668 -24.70386303 25.21731443 -23.484375 27.1328125 C-21.19839954 30.73694177 -18.9528844 34.36066672 -16.73876953 38.00927734 C-11.67505039 46.12299944 -6.30525828 54.04211257 -1 62 C-0.67 41.54 -0.34 21.08 0 0 Z " fill="#CDC6FB" transform="translate(459,642)"/>
<path d="M0 0 C2.55394506 1.39751874 4.37380641 2.56130641 6.4375 4.625 C6.7675 2.645 7.0975 0.665 7.4375 -1.375 C12.3875 -1.375 17.3375 -1.375 22.4375 -1.375 C22.51203666 6.25640768 22.56628507 13.8876002 22.60229492 21.51928711 C22.61731774 24.11177261 22.63774186 26.70423298 22.66381836 29.29663086 C22.70048808 33.03766105 22.71729212 36.77835319 22.73046875 40.51953125 C22.74595261 41.66581497 22.76143646 42.81209869 22.77738953 43.99311829 C22.77965087 54.97393372 21.3107428 63.79346892 13.4921875 71.8125 C5.56647341 78.80400444 -5.31661754 78.47049036 -15.33007812 77.89453125 C-21.55510294 77.14295345 -26.94164993 74.21181306 -31.3671875 69.84375 C-33.88971274 66.59439546 -34.88868592 63.60662867 -35.5625 59.625 C-32.99821485 59.48940325 -30.44114784 59.39066812 -27.875 59.3125 C-27.15376953 59.27060547 -26.43253906 59.22871094 -25.68945312 59.18554688 C-21.48767537 59.08961588 -20.11113605 59.11035025 -16.9140625 62.109375 C-15.75003906 63.35460937 -15.75003906 63.35460937 -14.5625 64.625 C-9.06717103 65.81577788 -4.01001352 65.2988425 1.0625 62.9375 C4.15014749 59.9311064 5.32126813 57.8541612 5.546875 53.52734375 C5.56075674 51.55960703 5.50416631 49.59165608 5.4375 47.625 C4.86644531 48.058125 4.29539062 48.49125 3.70703125 48.9375 C-3.31789349 53.76224959 -9.1271306 54.99121934 -17.5625 53.625 C-25.86188331 51.02216727 -30.72043595 46.2144575 -35.1953125 38.98828125 C-36.96973106 34.62321158 -37.04033807 30.91454791 -37 26.25 C-37.01998047 25.43789063 -37.03996094 24.62578125 -37.06054688 23.7890625 C-37.05476172 16.56919326 -34.93026634 11.45316535 -30.3125 5.9375 C-21.17602028 -1.74544885 -11.40959094 -5.63846064 0 0 Z " fill="#CBC4F8" transform="translate(490.5625,790.375)"/>
<path d="M0 0 C5.61 0 11.22 0 17 0 C19.59762102 7.42744849 21.62031938 14.93996314 23.5625 22.5625 C23.86607422 23.74263672 24.16964844 24.92277344 24.48242188 26.13867188 C25.06704133 28.41473935 25.64872577 30.69156332 26.22705078 32.96923828 C26.69608596 34.80834209 27.17177796 36.6457885 27.65966797 38.47998047 C28.53825347 41.81891447 29 44.51172784 29 48 C29.66 48 30.32 48 31 48 C31.06316406 46.87078125 31.12632812 45.7415625 31.19140625 44.578125 C31.97529455 37.54103988 34.20059595 30.8239665 36.23803711 24.06933594 C36.9393659 21.7438129 37.62979217 19.41526757 38.31835938 17.0859375 C38.7623953 15.59356374 39.20703567 14.10136966 39.65234375 12.609375 C39.85762192 11.91970642 40.06290009 11.23003784 40.2743988 10.51947021 C41.36377982 6.91486173 42.59706019 3.50734952 44 0 C49.28 0 54.56 0 60 0 C62.15169278 5.56843729 64.02048572 11.14788035 65.69921875 16.875 C65.9391304 17.68493408 66.17904205 18.49486816 66.42622375 19.3293457 C67.18269733 21.8854374 67.93516483 24.44268756 68.6875 27 C69.20351028 28.74617231 69.71978387 30.49226683 70.23632812 32.23828125 C71.4939289 36.49129498 72.74794135 40.74535157 74 45 C76.06551424 38.94797472 77.762868 32.81545244 79.45898438 26.65161133 C79.99587007 24.70249335 80.53683683 22.75453993 81.078125 20.80664062 C82.55880223 15.43918565 84.02348959 10.09059108 85.1875 4.64453125 C86 1 86 1 87 0 C89.86267567 -0.07325168 92.700719 -0.09238205 95.5625 -0.0625 C96.36880859 -0.05798828 97.17511719 -0.05347656 98.00585938 -0.04882812 C100.00393756 -0.03700518 102.00197783 -0.01906914 104 0 C102.7583376 6.05177006 101.17731645 11.88348603 99.25 17.75 C96.97449739 24.79489972 94.87067119 31.87096231 92.875 39 C91.08478304 45.37793704 89.18404347 51.63815643 86.80859375 57.828125 C86.03374049 59.90937337 85.39912556 61.98403081 84.8125 64.125 C84 67 84 67 83 68 C80.13732433 68.07325168 77.299281 68.09238205 74.4375 68.0625 C73.63119141 68.05798828 72.82488281 68.05347656 71.99414062 68.04882812 C69.99606244 68.03700518 67.99802217 68.01906914 66 68 C58.20870844 43.91175421 58.20870844 43.91175421 55 33.1875 C54.79286377 32.50824463 54.58572754 31.82898926 54.37231445 31.12915039 C53.4169598 27.88894404 53 25.42562144 53 22 C52.34 22 51.68 22 51 22 C50.896875 22.928125 50.79375 23.85625 50.6875 24.8125 C49.29786352 34.43923972 45.86095572 43.77963124 42.875 53 C42.51535156 54.11761719 42.15570312 55.23523438 41.78515625 56.38671875 C40.53688355 60.26244185 39.28761533 64.13715401 38 68 C32.39 68 26.78 68 21 68 C17.97833209 60.34248327 15.61155516 52.48621993 13.1875 44.625 C10.39196506 35.58884743 7.56992525 26.57260037 4.5 17.625 C2.50826929 11.80166807 0.9810038 6.08222356 0 0 Z " fill="#CCC5F9" transform="translate(627,667)"/>
<path d="M0 0 C7.50517198 5.90090659 11.2217077 14.26570174 12.7890625 23.52734375 C12.7890625 27.15734375 12.7890625 30.78734375 12.7890625 34.52734375 C-3.7109375 34.52734375 -20.2109375 34.52734375 -37.2109375 34.52734375 C-33.90407286 45.23978706 -33.90407286 45.23978706 -26.2109375 50.52734375 C-24.11040034 50.67635866 -22.00405925 50.74872828 -19.8984375 50.77734375 C-18.76792969 50.803125 -17.63742188 50.82890625 -16.47265625 50.85546875 C-12.84918582 50.49095196 -11.05977552 49.76607663 -8.2109375 47.52734375 C-7.5509375 46.20734375 -6.8909375 44.88734375 -6.2109375 43.52734375 C-0.2709375 43.52734375 5.6690625 43.52734375 11.7890625 43.52734375 C8.2316547 53.01376454 5.30647727 58.19889092 -3.9609375 62.46484375 C-13.31163515 66.31743566 -23.31768751 67.16812668 -33.0859375 64.02734375 C-43.68574551 59.49131892 -48.8932061 51.93616051 -53.2109375 41.52734375 C-56.43439233 31.85697926 -54.92315515 20.05069817 -50.6953125 11.0078125 C-45.93639073 3.05540376 -38.78095723 -2.38956817 -29.85546875 -5 C-19.03521443 -6.9339007 -9.19879152 -6.12711025 0 0 Z " fill="#CAC3F8" transform="translate(224.2109375,671.47265625)"/>
<path d="M0 0 C0.78938965 0.00974854 1.5787793 0.01949707 2.39208984 0.02954102 C11.33128499 0.30078794 17.32788917 2.18397341 23.625 8.75 C29.64700917 15.62348178 29.406865 23.15584123 29.3203125 31.83984375 C29.3174826 32.91754532 29.31465271 33.99524689 29.31173706 35.10560608 C29.30059193 38.52885299 29.27549756 41.95183291 29.25 45.375 C29.23996289 47.70377225 29.23083832 50.03254862 29.22265625 52.36132812 C29.20067111 58.05348741 29.16618018 63.74544852 29.125 69.4375 C23.845 69.4375 18.565 69.4375 13.125 69.4375 C12.63 65.9725 12.63 65.9725 12.125 62.4375 C11.36316406 63.16066406 11.36316406 63.16066406 10.5859375 63.8984375 C3.69453005 70.22201362 -1.39951723 71.9362363 -10.76953125 71.75 C-16.87918087 71.13519249 -22.61527917 69.28441479 -26.8125 64.625 C-30.81797805 58.43471574 -33.23387324 52.82875444 -31.875 45.4375 C-29.42936725 39.74108792 -25.75551058 35.17394696 -20.015625 32.60546875 C-9.81144751 28.8254541 1.35661162 28.17479506 12.125 27.4375 C11.980625 26.179375 11.83625 24.92125 11.6875 23.625 C11.60628906 22.91730469 11.52507813 22.20960938 11.44140625 21.48046875 C11.15329265 19.24353607 11.15329265 19.24353607 10.125 16.4375 C5.03600682 13.95824691 -0.33176938 13.8544891 -5.875 14.4375 C-8.91324575 15.35770732 -8.91324575 15.35770732 -10.875 17.4375 C-11.535 19.4175 -12.195 21.3975 -12.875 23.4375 C-18.485 23.4375 -24.095 23.4375 -29.875 23.4375 C-28.44843752 14.87812512 -26.31542107 9.93058184 -19.265625 4.76171875 C-12.92549529 1.24978415 -7.23074237 -0.09993205 0 0 Z " fill="#CAC4F8" transform="translate(765.875,665.5625)"/>
<path d="M0 0 C1.010625 0.53625 2.02125 1.0725 3.0625 1.625 C4.0215625 2.305625 4.0215625 2.305625 5 3 C5 3.66 5 4.32 5 5 C5.66 5 6.32 5 7 5 C14.85960574 14.51972048 15 23.66658117 15 36 C-1.17 36 -17.34 36 -34 36 C-31.55259072 45.6867036 -31.55259072 45.6867036 -25 51 C-22.32344199 52.33827901 -20.17565948 52.20578556 -17.1875 52.25 C-16.14980469 52.27578125 -15.11210938 52.3015625 -14.04296875 52.328125 C-10.54380845 51.95080861 -8.79668794 51.10819939 -6 49 C-5.37158203 47.92492187 -5.37158203 47.92492187 -4.73046875 46.828125 C-2.62021475 44.59878217 -1.97076116 44.70779351 1.01171875 44.609375 C2.57079139 44.63591241 4.12961831 44.68354401 5.6875 44.75 C6.88342773 44.77707031 6.88342773 44.77707031 8.10351562 44.8046875 C10.06952449 44.85177753 12.03491494 44.92352101 14 45 C11.63721178 53.21605905 8.86443199 58.43918992 1.328125 62.86328125 C-8.80805829 67.81232376 -19.96980068 68.66198519 -30.65234375 65.0390625 C-38.83624631 61.41690263 -45.4148956 54.72559487 -49.375 46.75 C-51.23254404 41.69032983 -51.3889173 36.76919269 -51.4375 31.4375 C-51.44765137 30.64633789 -51.45780273 29.85517578 -51.46826172 29.04003906 C-51.32962379 19.61656509 -48.44958682 11.90091231 -42 5 C-30.75760731 -5.2880695 -13.33258987 -8.29916268 0 0 Z " fill="#CBC4F9" transform="translate(540,670)"/>
<path d="M0 0 C7.75577971 5.46829844 12.41314684 12.33521672 14.625 21.625 C15.15433108 26.38897975 15 31.20670318 15 36 C-1.5 36 -18 36 -35 36 C-32.2918926 45.7210707 -32.2918926 45.7210707 -26 51 C-20.78746844 52.73751052 -14.15324508 53.21324858 -8.94921875 51.2109375 C-6.26828037 49.46799493 -4.77684202 47.66526302 -3 45 C-0.04935852 44.7791436 2.68368231 44.71939011 5.625 44.8125 C6.82769531 44.83280273 6.82769531 44.83280273 8.0546875 44.85351562 C10.03674378 44.88890949 12.01845551 44.94271766 14 45 C11.4267403 53.4766202 7.22004027 59.57938207 -0.625 64 C-9.76591137 67.72736192 -21.92040754 67.72795841 -31.3671875 65.04296875 C-33.79986905 63.87838716 -35.84905467 62.61884565 -38 61 C-39.60875 59.948125 -39.60875 59.948125 -41.25 58.875 C-49.60766852 50.13743745 -52.48750979 39.80986099 -52.25 28.0234375 C-51.43696152 18.1907534 -47.42914037 9.97241573 -40.25 3.25 C-29.11220456 -5.74670353 -12.58682122 -7.79511697 0 0 Z " fill="#CBC4F8" transform="translate(905,670)"/>
<path d="M0 0 C5.61 0 11.22 0 17 0 C17.33 10.89 17.66 21.78 18 33 C19.65 31.35 21.3 29.7 23 28 C29.29057718 24.19944295 35.79260076 24.21469016 43 25 C50.38031131 27.01281218 55.31548727 31.00964606 59.25 37.5625 C61.48911545 41.96076249 62.12591058 45.13940968 62.11352539 50.04394531 C62.11344986 51.04468079 62.11337433 52.04541626 62.11329651 53.07647705 C62.10813522 54.14952087 62.10297394 55.2225647 62.09765625 56.328125 C62.0962413 57.43226746 62.09482635 58.53640991 62.09336853 59.67401123 C62.08777258 63.19936842 62.07522079 66.72466202 62.0625 70.25 C62.05748448 72.64062408 62.05292166 75.03124916 62.04882812 77.421875 C62.03780447 83.28127449 62.02054257 89.14062646 62 95 C56.39 95 50.78 95 45 95 C44.98541748 93.63794434 44.97083496 92.27588867 44.95581055 90.87255859 C44.89772695 85.80686527 44.82049409 80.74161175 44.73754883 75.67626953 C44.7043469 73.48623812 44.6763003 71.29612211 44.65356445 69.10595703 C44.61993191 65.9530847 44.56761052 62.80098427 44.51171875 59.6484375 C44.50532883 58.67321136 44.4989389 57.69798523 44.49235535 56.69320679 C44.37887517 51.4159602 44.02640156 47.52450863 41 43 C36.67481024 40.05100698 33.18037921 39.3524526 28 40 C22.91356199 42.73885123 19.82995973 45.5101208 18 51 C17.88677175 52.4264314 17.82404524 53.8572249 17.79467773 55.2878418 C17.77473251 56.14850754 17.75478729 57.00917328 17.73423767 57.8959198 C17.70916893 59.28355278 17.70916893 59.28355278 17.68359375 60.69921875 C17.66281265 61.64940384 17.64203156 62.59958893 17.62062073 63.5785675 C17.55521948 66.61480456 17.49628396 69.65112831 17.4375 72.6875 C17.39430583 74.74545169 17.35069124 76.80339459 17.30664062 78.86132812 C17.19954769 83.90746316 17.09825354 88.95368543 17 94 C11.39 94 5.78 94 0 94 C0 62.98 0 31.96 0 0 Z " fill="#CCC5F9" transform="translate(322,641)"/>
<path d="M0 0 C24.09 0 48.18 0 73 0 C73 4.95 73 9.9 73 15 C63.76 15 54.52 15 45 15 C45 40.41 45 65.82 45 92 C39.39 92 33.78 92 28 92 C28 66.59 28 41.18 28 15 C18.76 15 9.52 15 0 15 C0 10.05 0 5.1 0 0 Z " fill="#CDC7FC" transform="translate(103,643)"/>
<path d="M0 0 C1.13779907 0.00845947 1.13779907 0.00845947 2.29858398 0.01708984 C11.8137957 0.2232987 18.71445496 2.76471333 25.75 9.3125 C30.57954356 14.38352074 32.49970105 18.30412937 32.75 25.3125 C27.47 25.6425 22.19 25.9725 16.75 26.3125 C16.028125 25.054375 15.30625 23.79625 14.5625 22.5 C12.33883517 19.00036037 10.76527345 16.77259943 6.75 15.3125 C0.78437437 14.52458718 -3.95278741 15.30035951 -9.25 18.3125 C-14.2047407 23.2672407 -15.53732782 28.75299414 -15.5625 35.625 C-15.48891237 41.45849215 -14.43991625 45.92895588 -12.25 51.3125 C-11.59 51.3125 -10.93 51.3125 -10.25 51.3125 C-10.25 51.9725 -10.25 52.6325 -10.25 53.3125 C-6.30217867 55.16119991 -3.09690758 55.60976551 1.25 55.625 C2.3534375 55.64175781 3.456875 55.65851562 4.59375 55.67578125 C8.23931373 55.25618047 9.91167763 54.63519381 12.75 52.3125 C14.07 50.0025 15.39 47.6925 16.75 45.3125 C22.36 45.3125 27.97 45.3125 33.75 45.3125 C31.62761169 54.17659235 28.76075518 61.22696382 20.73046875 66.171875 C11.10345206 71.06104914 2.45974477 73.02035485 -8.3359375 70.62890625 C-16.360499 67.92033577 -23.56004989 63.51492339 -28.25 56.3125 C-33.45668296 45.76850046 -35.10521234 34.80407189 -32.56640625 23.18359375 C-31.63993795 20.72710726 -30.59118457 18.56736656 -29.25 16.3125 C-28.8375 15.59835937 -28.425 14.88421875 -28 14.1484375 C-24.24485025 8.45170464 -19.28932228 5.31780459 -13.25 2.3125 C-12.49332031 1.93480469 -11.73664063 1.55710937 -10.95703125 1.16796875 C-7.30699728 0.01449481 -3.79006208 -0.02914472 0 0 Z " fill="#CBC5F8" transform="translate(278.25,665.6875)"/>
<path d="M0 0 C6.11869522 6.30411023 6.21296585 13.68506182 6.16015625 21.92578125 C6.1587413 22.76215622 6.15732635 23.59853119 6.15586853 24.46025085 C6.15029184 27.119371 6.13774365 29.7784055 6.125 32.4375 C6.11998199 34.24544149 6.11541961 36.0533843 6.11132812 37.86132812 C6.10033004 42.28258484 6.0830815 46.70377793 6.0625 51.125 C1.1125 51.125 -3.8375 51.125 -8.9375 51.125 C-9.4325 49.145 -9.4325 49.145 -9.9375 47.125 C-10.48019531 47.47433594 -11.02289062 47.82367187 -11.58203125 48.18359375 C-12.29746094 48.63863281 -13.01289062 49.09367188 -13.75 49.5625 C-14.81154297 50.24119141 -14.81154297 50.24119141 -15.89453125 50.93359375 C-21.03637106 53.93218102 -26.65233552 53.84794882 -32.3515625 52.59375 C-36.90414984 51.1929539 -40.5609322 49.60388804 -43.9375 46.125 C-46.61623998 40.59592816 -46.81643248 35.14968262 -45.9375 29.125 C-43.73705428 24.25629727 -40.00802402 21.88997253 -35.25 19.75 C-26.73192367 16.76164939 -17.85836291 16.99571213 -8.9375 17.125 C-9.5975 14.155 -10.2575 11.185 -10.9375 8.125 C-14.35886878 7.26965781 -17.01608289 6.93188028 -20.5 6.875 C-21.45003906 6.84921875 -22.40007813 6.8234375 -23.37890625 6.796875 C-25.95989498 6.91468963 -25.95989498 6.91468963 -27.71484375 8.453125 C-29.13945138 10.22293066 -29.13945138 10.22293066 -29.9375 13.125 C-34.8875 13.125 -39.8375 13.125 -44.9375 13.125 C-43.93145031 7.08870186 -43.01542073 3.55388092 -38.140625 -0.29296875 C-25.83897721 -8.42254607 -12.22559668 -7.80357235 0 0 Z " fill="#CBC4F8" transform="translate(642.9375,793.875)"/>
<path d="M0 0 C13.19475024 -1.42360942 13.19475024 -1.42360942 19 0 C22.78677723 3.42320187 24.21247247 7.29265258 26 12 C28.69568776 17.28942673 28.69568776 17.28942673 33 21 C33.24878906 20.34644531 33.49757813 19.69289063 33.75390625 19.01953125 C39.91082667 4.10009713 39.91082667 4.10009713 45 0 C51.16653414 -1.94780276 57.71908718 -0.92859491 64 0 C62.60939922 2.93172626 61.01563877 5.5621628 59.171875 8.23046875 C58.61886719 9.03419922 58.06585937 9.83792969 57.49609375 10.66601562 C56.63177734 11.91415039 56.63177734 11.91415039 55.75 13.1875 C54.05719377 15.64109616 52.36619282 18.09544735 50.68945312 20.56005859 C49.54714827 22.20979771 48.37270895 23.83767121 47.16992188 25.44384766 C46.60337891 26.22163574 46.03683594 26.99942383 45.453125 27.80078125 C44.93395508 28.48954346 44.41478516 29.17830566 43.87988281 29.88793945 C42.75384492 32.00274589 42.75384492 32.00274589 43.5769043 34.35571289 C45.29648463 37.55090496 47.2452549 40.53481313 49.31640625 43.5078125 C49.73292953 44.115112 50.14945282 44.7224115 50.57859802 45.34811401 C51.90201203 47.27692267 53.23163428 49.20132694 54.5625 51.125 C55.89648186 53.0561113 57.22897576 54.98817353 58.55711365 56.92330933 C59.38160407 58.12440452 60.20949385 59.32317497 61.04115295 60.51931763 C62.75331274 63.01163119 64.03737541 65.11212623 65 68 C58.69394225 69.1279664 52.15842142 70.25659671 46 68 C40.94824289 63.47821548 37.98446609 57.14602863 35.140625 51.0847168 C33.99051736 48.9826686 32.77314547 47.59385652 31 46 C30.61142822 46.63091553 30.22285645 47.26183105 29.82250977 47.91186523 C28.07059807 50.75462451 26.31657817 53.59607704 24.5625 56.4375 C23.95083984 57.43072266 23.33917969 58.42394531 22.70898438 59.44726562 C22.12568359 60.39150391 21.54238281 61.33574219 20.94140625 62.30859375 C20.40201416 63.18314209 19.86262207 64.05769043 19.30688477 64.95874023 C18 67 18 67 17 68 C15.58429877 68.08651611 14.164405 68.10704904 12.74609375 68.09765625 C11.89208984 68.09443359 11.03808594 68.09121094 10.15820312 68.08789062 C9.26037109 68.07951172 8.36253906 68.07113281 7.4375 68.0625 C6.53580078 68.05798828 5.63410156 68.05347656 4.70507812 68.04882812 C2.46998686 68.03700225 0.23502563 68.0205222 -2 68 C0.65393583 63.19735007 3.51015823 58.73565451 6.75 54.3125 C7.62731854 53.09187576 8.50360281 51.87050756 9.37890625 50.6484375 C10.66742987 48.85260236 11.95763157 47.05827922 13.25732422 45.27050781 C14.41533913 43.66998417 15.5519371 42.05403067 16.6875 40.4375 C17.35136719 39.50808594 18.01523437 38.57867188 18.69921875 37.62109375 C20.32104943 34.35308058 20.0643987 33.44901989 19 30 C17.64305962 27.73106158 16.2674513 25.60831381 14.74609375 23.45703125 C14.32578384 22.84736008 13.90547394 22.2376889 13.47242737 21.60954285 C12.13517468 19.67170721 10.78721993 17.74166824 9.4375 15.8125 C8.08550781 13.87178737 6.73597409 11.92950075 5.39186096 9.98332214 C4.5565357 8.77461258 3.71644197 7.56918205 2.87120056 6.36738586 C0 2.22393791 0 2.22393791 0 0 Z " fill="#CBC4F8" transform="translate(559,667)"/>
<path d="M0 0 C22.9066358 0 22.9066358 0 30.4921875 7.14453125 C35.05427087 12.75849395 36.66953338 19.42908345 36.3125 26.55859375 C35.25686552 34.8057381 32.02510733 40.28984146 26 46 C18.23847551 51.17434966 9.22050782 49 0 49 C0 32.83 0 16.66 0 0 Z " fill="#323559" transform="translate(364,782)"/>
<path d="M0 0 C4.95 0 9.9 0 15 0 C15 5.28 15 10.56 15 16 C19.62 16 24.24 16 29 16 C29 19.96 29 23.92 29 28 C24.38 28 19.76 28 15 28 C15.09687548 31.95149966 15.19956184 35.90216192 15.31738281 39.85302734 C15.37454036 41.85886971 15.42168596 43.86498918 15.46875 45.87109375 C15.50742187 47.12792969 15.54609375 48.38476562 15.5859375 49.6796875 C15.63306885 51.42354736 15.63306885 51.42354736 15.68115234 53.20263672 C15.72157869 56.13656482 15.72157869 56.13656482 18 58 C20.66242821 58.46290221 20.66242821 58.46290221 23.625 58.625 C25.39875 58.74875 27.1725 58.8725 29 59 C29 63.29 29 67.58 29 72 C26.12442297 72.08138426 23.25117738 72.14067851 20.375 72.1875 C19.56675781 72.21263672 18.75851562 72.23777344 17.92578125 72.26367188 C12.85066638 72.32556352 9.37616195 71.86621905 5 69 C0.77733686 63.52195052 -0.1485119 59.45138326 -0.09765625 52.70703125 C-0.0962413 52.00100266 -0.09482635 51.29497406 -0.09336853 50.56755066 C-0.08777764 48.31582374 -0.07522688 46.06419679 -0.0625 43.8125 C-0.05748382 42.28450665 -0.05292112 40.75651173 -0.04882812 39.22851562 C-0.0378112 35.48563865 -0.02055287 31.74283627 0 28 C-3.3 28 -6.6 28 -10 28 C-10 24.04 -10 20.08 -10 16 C-6.7 16 -3.4 16 0 16 C0 10.72 0 5.44 0 0 Z " fill="#CEC7FB" transform="translate(560,774)"/>
<path d="M0 0 C0 5.28 0 10.56 0 16 C-3.0009375 16.12375 -3.0009375 16.12375 -6.0625 16.25 C-11.88872307 16.71280118 -15.43545711 17.32851985 -20 21 C-23.37892471 26.19580392 -23.46857269 30.77929662 -23.51171875 36.7734375 C-23.52966995 37.6971817 -23.54762115 38.6209259 -23.56611633 39.57266235 C-23.62005424 42.50672926 -23.654062 45.44063501 -23.6875 48.375 C-23.72068766 50.37111609 -23.75517865 52.36721097 -23.79101562 54.36328125 C-23.87577126 59.24207093 -23.94266117 64.12081419 -24 69 C-29.61 69 -35.22 69 -41 69 C-41 46.89 -41 24.78 -41 2 C-35.72 2 -30.44 2 -25 2 C-24.67 4.64 -24.34 7.28 -24 10 C-22.9171875 8.6078125 -22.9171875 8.6078125 -21.8125 7.1875 C-15.68461574 -0.13143782 -8.94884982 -0.13356492 0 0 Z " fill="#CBC4F9" transform="translate(850,666)"/>
<path d="M0 0 C4.95 0 9.9 0 15 0 C15 25.41 15 50.82 15 77 C10.05 77 5.1 77 0 77 C0 51.59 0 26.18 0 0 Z " fill="#D0C9FD" transform="translate(662,768)"/>
<path d="M0 0 C5.28 0 10.56 0 16 0 C16 18.48 16 36.96 16 56 C10.72 56 5.44 56 0 56 C0 37.52 0 19.04 0 0 Z " fill="#C9C1F6" transform="translate(526,789)"/>
<path d="M0 0 C4.95 0 9.9 0 15 0 C15 18.15 15 36.3 15 55 C10.05 55 5.1 55 0 55 C0 36.85 0 18.7 0 0 Z " fill="#D1CAFD" transform="translate(427,790)"/>
<path d="M0 0 C3.9953209 2.03398155 6.69367121 4.16703879 9 8 C9.85747779 13.45728113 10.34353971 19.43618111 7.72265625 24.4375 C4.94805787 27.69375237 2.73687791 29.8435014 -1.64453125 30.23828125 C-10.14274262 30.43737621 -10.14274262 30.43737621 -14.0625 28.4375 C-18.49222966 22.86461429 -19.65780171 17.90691792 -19 11 C-15.68541717 1.60868198 -9.51445918 -1.68630252 0 0 Z " fill="#383861" transform="translate(488,801)"/>
<path d="M0 0 C0.34573147 5.76219112 0.34446833 10.04096075 -3 15 C-7.25308989 18.83815429 -9.69796251 20.14945015 -15.375 20.1875 C-16.80972656 20.20876953 -16.80972656 20.20876953 -18.2734375 20.23046875 C-21.06242006 19.99472381 -22.65541735 19.49056046 -25 18 C-27.29853304 14.78205375 -27.63167588 11.86901475 -27 8 C-22.94067273 3.94067273 -19.64902227 2.10515955 -14.0234375 1.46484375 C-12.89421875 1.33432617 -12.89421875 1.33432617 -11.7421875 1.20117188 C-10.96101562 1.11416016 -10.17984375 1.02714844 -9.375 0.9375 C-8.58609375 0.84662109 -7.7971875 0.75574219 -6.984375 0.66210938 C-1.1896734 0 -1.1896734 0 0 0 Z " fill="#3C3968" transform="translate(778,704)"/>
<path d="M0 0 C112.86 0 225.72 0 342 0 C342 0.33 342 0.66 342 1 C334.39764198 2.02692899 326.93119782 2.14168258 319.26611328 2.12939453 C317.90021213 2.13075199 316.53431135 2.13253386 315.16841125 2.13470459 C311.48496671 2.13923527 307.8015504 2.13750813 304.11810541 2.1343255 C300.25580936 2.13178234 296.39351563 2.13414459 292.53121948 2.13571167 C286.0536862 2.13752635 279.57616436 2.1351441 273.09863281 2.13037109 C265.60892454 2.12491602 258.11924343 2.12670296 250.62953579 2.1321975 C244.19029257 2.13673218 237.75105754 2.13737785 231.31181324 2.13475883 C227.46931632 2.13319979 223.62683219 2.13299239 219.78433609 2.13629532 C216.17770548 2.13917964 212.57111006 2.137188 208.96448326 2.13140106 C207.00779138 2.12944479 205.05109652 2.13242164 203.09440613 2.13552856 C201.93372116 2.13270874 200.77303619 2.12988892 199.57717896 2.12698364 C198.5665999 2.12660662 197.55602085 2.12622959 196.51481819 2.12584114 C194 2 194 2 191 1 C190.67 1.66 190.34 2.32 190 3 C189.04287109 2.7525 189.04287109 2.7525 188.06640625 2.5 C183.99439279 1.83602838 180.05499885 1.94180214 175.9375 2 C165.15828234 2.08325181 154.39827282 1.81598384 143.625 1.5 C142.39123123 1.46398682 142.39123123 1.46398682 141.13253784 1.42724609 C136.42156087 1.2889629 131.7107342 1.14631059 127 1 C126.67 1.66 126.34 2.32 126 3 C125.11828125 2.83628906 124.2365625 2.67257812 123.328125 2.50390625 C117.50197954 1.67222839 111.62094422 1.89537954 105.75 1.9375 C104.56664062 1.94201172 103.38328125 1.94652344 102.1640625 1.95117188 C99.981435 1.95987255 97.79881402 1.97063057 95.61621094 1.98413086 C91.86896748 2.0068605 88.12234817 1.99177673 84.37510681 1.97434998 C81.22672299 1.96107177 78.07833327 1.95287148 74.92993164 1.94506836 C73.2665138 1.94001733 71.60310045 1.93317753 69.93969727 1.92456055 C67.54181837 1.91246801 65.1439975 1.90676784 62.74609375 1.90234375 C61.62732094 1.89460182 61.62732094 1.89460182 60.48594666 1.88670349 C56.61578429 1.81185733 56.61578429 1.81185733 53 3 C52.34 2.67 51.68 2.34 51 2 C49.36664808 1.88127427 47.72872646 1.82290908 46.09130859 1.79467773 C45.07040131 1.77473251 44.04949402 1.75478729 42.99765015 1.73423767 C41.89240997 1.71752518 40.7871698 1.70081268 39.6484375 1.68359375 C38.5192691 1.66281265 37.39010071 1.64203156 36.22671509 1.62062073 C32.60954028 1.55508665 28.99229119 1.49622226 25.375 1.4375 C22.92707556 1.39431846 20.47915872 1.35070429 18.03125 1.30664062 C12.0209125 1.19940133 6.01050065 1.09764213 0 1 C0 0.67 0 0.34 0 0 Z " fill="#5579B6" transform="translate(302,305)"/>
<path d="M0 0 C4.873387 2.30378294 7.48191114 5.25437099 10 10 C10 11.65 10 13.3 10 15 C-0.56 15 -11.12 15 -22 15 C-20.86814891 8.20889349 -20.86814891 8.20889349 -18.1875 5.25 C-17.68605469 4.67765625 -17.18460938 4.1053125 -16.66796875 3.515625 C-11.79185114 -0.91513292 -6.28417481 -0.72965745 0 0 Z " fill="#3E3A6B" transform="translate(209,679)"/>
<path d="M0 0 C4.30474294 2.39725205 6.24309263 5.8721948 7.6875 10.5 C7.6875 11.49 7.6875 12.48 7.6875 13.5 C-2.8725 13.5 -13.4325 13.5 -24.3125 13.5 C-23.1286435 5.21300448 -23.1286435 5.21300448 -19.3125 1.5 C-13.23185448 -2.60090046 -6.68582097 -2.80132163 0 0 Z " fill="#3E3A6B" transform="translate(895.3125,680.5)"/>
<path d="M0 0 C4.47434059 2.91596983 6.24308717 6.0940802 7.828125 11.12890625 C7.828125 12.11890625 7.828125 13.10890625 7.828125 14.12890625 C-2.731875 14.12890625 -13.291875 14.12890625 -24.171875 14.12890625 C-23.04048814 7.34058508 -23.04048814 7.34058508 -19.796875 3.81640625 C-19.19101562 3.13964844 -18.58515625 2.46289062 -17.9609375 1.765625 C-13.53372619 -2.2845967 -5.36215083 -2.15064683 0 0 Z " fill="#3F396C" transform="translate(530.171875,679.87109375)"/>
<path d="M0 0 C3.0625 2.0625 3.0625 2.0625 5 5 C5.69151325 9.30274909 5.51557405 11.20945312 3.125 14.875 C0.4126761 17.5873239 -0.46241153 17.93914093 -4.3125 18.375 C-8 18 -8 18 -10.875 15.9375 C-13.39465123 12.45445271 -13.92225715 10.27585689 -14 6 C-11.84603094 -0.6414046 -6.07746368 -1.02178023 0 0 Z " fill="#C6BFF4" transform="translate(439,764)"/>
<path d="M0 0 C0.32764303 4.09553782 0.23069669 6.53860663 -1.625 10.25 C-4.69438956 13.80403002 -7.32900444 15.58233467 -12.0234375 16.31640625 C-15.41125334 16.51161497 -17.61147977 16.24282515 -20.5 14.4375 C-22.61728712 10.99690844 -22.70735258 8.96117446 -22 5 C-18.17748747 0.72778012 -14.34789841 0.67530234 -8.75 0.25 C-5.82988879 0.11446741 -2.92301437 0 0 0 Z " fill="#3F3A69" transform="translate(634,820)"/>
<path d="M0 0 C3 2.0625 3 2.0625 5 5 C5.57167363 9.00171543 5.36938628 11.22764686 3.625 14.875 C2 17 2 17 0 18 C-6.94263424 18.68288206 -6.94263424 18.68288206 -11 16.0625 C-13.33953725 12.48008358 -13.74316342 10.30323817 -13.4765625 6.09375 C-13 4 -13 4 -11 1.4375 C-7.15997879 -0.40251016 -4.17716314 -0.96007379 0 0 Z " fill="#C9C4F7" transform="translate(538,764)"/>
<path d="M0 0 C0.99 0.33 1.98 0.66 3 1 C2.67 1.33 2.34 1.66 2 2 C1.89162134 3.69519835 1.85313821 5.39489979 1.84178162 7.09352112 C1.8319928 8.19714996 1.82220398 9.30077881 1.81211853 10.43785095 C1.80636307 11.65920242 1.8006076 12.88055389 1.79467773 14.13891602 C1.78477814 15.41677979 1.77487854 16.69464355 1.76467896 18.01123047 C1.7375667 21.52550176 1.71659149 25.03978658 1.69667697 28.55410504 C1.67485626 32.22302054 1.64744848 35.89189407 1.62062073 39.56077576 C1.57064073 46.51287391 1.52572167 53.46499529 1.48259836 60.41713899 C1.43327124 68.3299776 1.37833639 76.24277412 1.32291877 84.15557206 C1.20901729 100.43700927 1.10219613 116.71848502 1 133 C0.01 132.67 -0.98 132.34 -2 132 C-1.505 131.01 -1.505 131.01 -1 130 C-0.89504975 128.2771171 -0.85342156 126.55022548 -0.84178162 124.82418823 C-0.8319928 123.72759888 -0.82220398 122.63100952 -0.81211853 121.50119019 C-0.80348534 119.688582 -0.80348534 119.688582 -0.79467773 117.83935547 C-0.78477814 116.57109924 -0.77487854 115.30284302 -0.76467896 113.99615479 C-0.73760179 110.5129335 -0.71660749 107.02969863 -0.69667697 103.54643011 C-0.67483473 99.90821693 -0.64743744 96.27004576 -0.62062073 92.63186646 C-0.57066997 85.74000879 -0.52574 78.84812784 -0.48259836 71.95622456 C-0.43324633 64.11107606 -0.37832067 56.26596971 -0.32291877 48.42086196 C-0.20906215 32.28061348 -0.10223114 16.14032639 0 0 Z " fill="#7B89CD" transform="translate(622,350)"/>
<path d="M0 0 C0.99 0.33 1.98 0.66 3 1 C4.3287436 7.47639474 3.59905095 13.47700073 3 20 C-7.48797481 20.92639252 -17.85623261 21.12381706 -28.375 21.0625 C-29.90104017 21.05746731 -31.42708198 21.05290758 -32.953125 21.04882812 C-36.63545154 21.03798019 -40.31771469 21.02081654 -44 21 C-44 23.64 -44 26.28 -44 29 C-46 27 -46 27 -47 19 C-30.83 19 -14.66 19 2 19 C1.39760342 9.44625763 1.39760342 9.44625763 0 0 Z " fill="#343063" transform="translate(553,687)"/>
<path d="M0 0 C2.20236161 3.30354242 2.24886514 4.28904865 2.24291992 8.12646484 C2.24599655 9.17119965 2.24907318 10.21593445 2.25224304 11.29232788 C2.24505753 12.42046906 2.23787201 13.54861023 2.23046875 14.7109375 C2.23001053 15.87122467 2.22955231 17.03151184 2.2290802 18.22695923 C2.22605701 20.68321758 2.21816873 23.139474 2.20581055 25.59570312 C2.18760691 29.35293385 2.18530053 33.10991737 2.18554688 36.8671875 C2.18062954 39.25260629 2.17480028 41.63802342 2.16796875 44.0234375 C2.16685593 45.14753021 2.1657431 46.27162292 2.16459656 47.42977905 C2.15821671 48.48081818 2.15183685 49.5318573 2.14526367 50.61474609 C2.14145187 51.53613373 2.13764008 52.45752136 2.13371277 53.40682983 C1.99865453 56.02609351 1.57968932 58.44538864 1 61 C-0.485 61.495 -0.485 61.495 -2 62 C-1.84152588 61.10724365 -1.68305176 60.2144873 -1.51977539 59.29467773 C-0.71876278 53.65371027 -0.7650502 47.97275007 -0.68359375 42.28515625 C-0.66281265 41.07427841 -0.64203156 39.86340057 -0.62062073 38.61582947 C-0.55546976 34.7647749 -0.49640086 30.91365473 -0.4375 27.0625 C-0.394282 24.44465479 -0.35066668 21.82681612 -0.30664062 19.20898438 C-0.19982381 12.80605805 -0.09799465 6.4030671 0 0 Z " fill="#2C2A59" transform="translate(513,789)"/>
<path d="M0 0 C0.99 0.495 0.99 0.495 2 1 C1.99476318 1.74685059 1.98952637 2.49370117 1.98413086 3.26318359 C1.96339599 6.63378057 1.95035101 10.00436414 1.9375 13.375 C1.92912109 14.550625 1.92074219 15.72625 1.91210938 16.9375 C1.90888672 18.05898438 1.90566406 19.18046875 1.90234375 20.3359375 C1.89710693 21.37282715 1.89187012 22.4097168 1.88647461 23.47802734 C1.82859185 25.9959668 1.82859185 25.9959668 3 28 C2.67 28.66 2.34 29.32 2 30 C1.84308093 32.76931368 1.74156866 35.51734107 1.68359375 38.2890625 C1.66281265 39.10748627 1.64203156 39.92591003 1.62062073 40.76913452 C1.55515188 43.38766966 1.49625274 46.00630639 1.4375 48.625 C1.39431224 50.39844807 1.35069786 52.17188581 1.30664062 53.9453125 C1.19947324 58.29677046 1.09819831 62.64833077 1 67 C0.67 67 0.34 67 0 67 C0 44.89 0 22.78 0 0 Z " fill="#2F2C5C" transform="translate(477,658)"/>
<path d="M0 0 C1.98 0 3.96 0 6 0 C5.01 0.66 4.02 1.32 3 2 C2.5661193 4.69749618 2.5661193 4.69749618 2.671875 7.84765625 C2.67703125 9.00974609 2.6821875 10.17183594 2.6875 11.36914062 C2.708125 12.58794922 2.72875 13.80675781 2.75 15.0625 C2.75515625 16.28517578 2.7603125 17.50785156 2.765625 18.76757812 C2.28676314 24.25369193 2.28676314 24.25369193 4 29 C5.51469448 29.23192865 7.03754562 29.41215238 8.5625 29.5625 C9.38878906 29.64628906 10.21507812 29.73007812 11.06640625 29.81640625 C12.02353516 29.90728516 12.02353516 29.90728516 13 30 C13 30.33 13 30.66 13 31 C11.39667209 31.08121924 9.79215974 31.13929134 8.1875 31.1875 C6.84751953 31.23970703 6.84751953 31.23970703 5.48046875 31.29296875 C3 31 3 31 1.36328125 29.8828125 C-0.63770817 27.11926837 -0.33885807 24.96254443 -0.29296875 21.58203125 C-0.28330078 20.32841797 -0.27363281 19.07480469 -0.26367188 17.78320312 C-0.23853516 16.47287109 -0.21339844 15.16253906 -0.1875 13.8125 C-0.17244967 12.47722837 -0.15876187 11.14194063 -0.14648438 9.80664062 C-0.11107694 6.53735424 -0.0616889 3.26887907 0 0 Z " fill="#343260" transform="translate(575,802)"/>
<path d="M0 0 C0.66 0.33 1.32 0.66 2 1 C1.57702637 1.40202637 1.15405273 1.80405273 0.71826172 2.21826172 C-9.90982249 12.1380796 -9.90982249 12.1380796 -17.921875 24.14453125 C-19 26 -19 26 -22 28 C-18.67575376 16.54981851 -9.51521671 6.90484753 0 0 Z " fill="#5E8EC8" transform="translate(327,224)"/>
<path d="M0 0 C1.12921875 -0.03867187 1.12921875 -0.03867187 2.28125 -0.078125 C5.04261187 0.33024542 6.41361448 1.4481216 8.5 3.25 C7.49839844 3.18039062 6.49679687 3.11078125 5.46484375 3.0390625 C-3.21020546 2.37905994 -3.21020546 2.37905994 -10.8125 5.9375 C-13.13287286 8.44231276 -14.61686347 10.91370644 -15.5 14.25 C-16.16 13.92 -16.82 13.59 -17.5 13.25 C-16.26176234 7.4715576 -13.33989536 4.38470016 -8.5 1.25 C-5.66675013 0.29989412 -2.97937258 0.06121998 0 0 Z " fill="#3E3B6B" transform="translate(280.5,679.75)"/>
<path d="M0 0 C0.66 0 1.32 0 2 0 C3.05074806 10.13829888 2.87580822 18.93884684 1 29 C0.34 29 -0.32 29 -1 29 C-0.67 19.43 -0.34 9.86 0 0 Z " fill="#324774" transform="translate(703,218)"/>
<path d="M0 0 C0.66 0.33 1.32 0.66 2 1 C0.1875 3 0.1875 3 -2 5 C-2.99 5 -3.98 5 -5 5 C-5.35964844 5.84691406 -5.35964844 5.84691406 -5.7265625 6.7109375 C-7.26641322 9.47889003 -9.12933621 11.39425756 -11.375 13.625 C-12.53128906 14.78902344 -12.53128906 14.78902344 -13.7109375 15.9765625 C-15.7670065 17.79404329 -17.49265929 18.93523887 -20 20 C-19.8125 17.6875 -19.8125 17.6875 -19 15 C-16.625 13.375 -16.625 13.375 -14 12 C-12.98232915 11.01798878 -11.98376332 10.01597723 -11 9 C-7.45654528 5.84295449 -3.85361105 2.77459996 0 0 Z " fill="#5074AE" transform="translate(392,345)"/>
<path d="M0 0 C0.33 0 0.66 0 1 0 C1 16.83 1 33.66 1 51 C0.01 50.67 -0.98 50.34 -2 50 C-1.67 49.34 -1.34 48.68 -1 48 C-0.88177029 46.45857825 -0.82300189 44.91238903 -0.79467773 43.36669922 C-0.7647599 41.92543167 -0.7647599 41.92543167 -0.73423767 40.45504761 C-0.71752518 39.41542877 -0.70081268 38.37580994 -0.68359375 37.3046875 C-0.6524221 35.71081711 -0.6524221 35.71081711 -0.62062073 34.08474731 C-0.55509739 30.68156562 -0.49622727 27.27830511 -0.4375 23.875 C-0.39431743 21.57160634 -0.35070323 19.26822074 -0.30664062 16.96484375 C-0.19941318 11.30997979 -0.09765198 5.65503697 0 0 Z " fill="#8990D9" transform="translate(622,432)"/>
<path d="M0 0 C1.32 1.32 2.64 2.64 4 4 C3.67128906 4.50789062 3.34257812 5.01578125 3.00390625 5.5390625 C1.62661716 8.91529646 1.84816149 11.73713595 1.9375 15.375 C2.06393544 22.97517485 1.66296993 30.42320081 1 38 C0.67 38 0.34 38 0 38 C0 25.46 0 12.92 0 0 Z " fill="#2F295E" transform="translate(416,672)"/>
<path d="M0 0 C0.33 0.66 0.66 1.32 1 2 C0.07421875 3.8046875 0.07421875 3.8046875 -1.3125 5.875 C-2.66710715 7.91661422 -3.92148143 9.82507256 -4.92578125 12.0625 C-6.23804826 14.42935249 -7.68729303 15.54819988 -9.875 17.125 C-10.55304687 17.62257813 -11.23109375 18.12015625 -11.9296875 18.6328125 C-13.8975595 19.93235061 -15.86853684 20.99639627 -18 22 C-14.67645072 18.09482959 -11.31616802 14.23953958 -7.875 10.4375 C-4.90123507 7.11052928 -2.33668999 3.79712124 0 0 Z " fill="#35487A" transform="translate(693,270)"/>
<path d="M0 0 C0.66 0.33 1.32 0.66 2 1 C1.49210937 1.64324219 0.98421875 2.28648437 0.4609375 2.94921875 C-4.89104541 9.97494913 -8.58850368 16.87185157 -12 25 C-12.33 25 -12.66 25 -13 25 C-13.45189017 20.33336497 -12.01203281 17.59709214 -9.75 13.5625 C-9.14671875 12.47066406 -8.5434375 11.37882813 -7.921875 10.25390625 C-2.64735945 1.32367973 -2.64735945 1.32367973 0 0 Z " fill="#274873" transform="translate(314,234)"/>
<path d="M0 0 C0.66 0.66 1.32 1.32 2 2 C1.72285156 2.50660156 1.44570313 3.01320313 1.16015625 3.53515625 C-0.35216286 6.74819787 -1.45329727 10.07039498 -2.5625 13.4375 C-2.78357422 14.09298828 -3.00464844 14.74847656 -3.23242188 15.42382812 C-4.39437922 18.92374194 -5.37648677 22.3640071 -6 26 C-6.66 25.67 -7.32 25.34 -8 25 C-7.30828667 19.64786814 -5.72896936 14.77246414 -4 9.6875 C-3.72671875 8.86443359 -3.4534375 8.04136719 -3.171875 7.19335938 C-1.13365683 1.13365683 -1.13365683 1.13365683 0 0 Z " fill="#3B3769" transform="translate(722,699)"/>
<path d="M0 0 C2.77109307 -0.05392397 5.54113818 -0.09363455 8.3125 -0.125 C9.09818359 -0.14175781 9.88386719 -0.15851562 10.69335938 -0.17578125 C11.45068359 -0.18222656 12.20800781 -0.18867187 12.98828125 -0.1953125 C13.68477783 -0.20578613 14.38127441 -0.21625977 15.09887695 -0.22705078 C17 0 17 0 20 2 C19.67 3.32 19.34 4.64 19 6 C18.34 4.68 17.68 3.36 17 2 C8.585 2.495 8.585 2.495 0 3 C0 2.01 0 1.02 0 0 Z " fill="#494673" transform="translate(454,848)"/>
<path d="M0 0 C1.485 0.99 1.485 0.99 3 2 C2.67 2.99 2.34 3.98 2 5 C1.91621372 7.2838517 1.89270085 9.570101 1.90234375 11.85546875 C1.9037587 12.51710526 1.90517365 13.17874176 1.90663147 13.86042786 C1.91222004 15.96949828 1.92477035 18.07846177 1.9375 20.1875 C1.94251648 21.61913909 1.94707913 23.05077985 1.95117188 24.48242188 C1.9621857 27.98831588 1.97944245 31.4941475 2 35 C1.34 35 0.68 35 0 35 C0 23.45 0 11.9 0 0 Z " fill="#2A2952" transform="translate(826,693)"/>
<path d="M0 0 C1.16268898 2.32537796 1.10193708 3.62726082 1.0625 6.2109375 C1.05476563 7.04367187 1.04703125 7.87640625 1.0390625 8.734375 C1.01313638 10.48698088 0.98709575 12.23958507 0.9609375 13.9921875 C0.95320313 14.8275 0.94546875 15.6628125 0.9375 16.5234375 C0.92589844 17.28575684 0.91429687 18.04807617 0.90234375 18.83349609 C1.00079379 21.01761024 1.39559469 22.90421269 2 25 C1.34 25 0.68 25 0 25 C-0.49975779 22.772924 -0.99647 20.54525296 -1.48828125 18.31640625 C-1.86162896 16.62636663 -2.24142115 14.93774693 -2.625 13.25 C-3.03366278 10.79802331 -3.07089555 8.48134436 -3 6 C-2.34 6 -1.68 6 -1 6 C-1.0309375 4.7934375 -1.0309375 4.7934375 -1.0625 3.5625 C-1 1 -1 1 0 0 Z " fill="#433F71" transform="translate(489,690)"/>
<path d="M0 0 C0.36923077 6.52307692 0.36923077 6.52307692 -1.5 8.9375 C-1.995 9.288125 -2.49 9.63875 -3 10 C-2.67 7.36 -2.34 4.72 -2 2 C-2.99 2.33 -3.98 2.66 -5 3 C-6.89470816 3.0685495 -8.7916834 3.08480372 -10.6875 3.0625 C-11.68136719 3.05347656 -12.67523437 3.04445313 -13.69921875 3.03515625 C-14.83810547 3.01775391 -14.83810547 3.01775391 -16 3 C-16 2.34 -16 1.68 -16 1 C-13.70839646 0.83246763 -11.41671509 0.66599948 -9.125 0.5 C-7.84882812 0.4071875 -6.57265625 0.314375 -5.2578125 0.21875 C-3.50763316 0.10123196 -1.75412035 0 0 0 Z " fill="#494377" transform="translate(634,820)"/>
<path d="M0 0 C-0.99 0 -1.98 0 -3 0 C-3.33 0.66 -3.66 1.32 -4 2 C-5.890625 3 -5.890625 3 -8.25 4 C-9.06210937 4.34546875 -9.87421875 4.6909375 -10.7109375 5.046875 C-11.84402344 5.51867187 -11.84402344 5.51867187 -13 6 C-13.94875 6.4125 -14.8975 6.825 -15.875 7.25 C-18 8 -18 8 -21 8 C-18.32649506 4.74870462 -14.84255486 3.35720599 -11.0625 1.75 C-10.44181641 1.46898437 -9.82113281 1.18796875 -9.18164062 0.8984375 C-5.79514321 -0.55858588 -3.49615163 -1.50711298 0 0 Z " fill="#5887C1" transform="translate(350,216)"/>
<path d="M0 0 C-7.5125218 3.83973336 -15.71881236 5.01434294 -24 3 C-24 2.34 -24 1.68 -24 1 C-22.74703125 0.93941406 -21.4940625 0.87882813 -20.203125 0.81640625 C-18.55207276 0.73197744 -16.90103165 0.64733061 -15.25 0.5625 C-14.425 0.52318359 -13.6 0.48386719 -12.75 0.44335938 C-11.95078125 0.40146484 -11.1515625 0.35957031 -10.328125 0.31640625 C-9.5949707 0.27974854 -8.86181641 0.24309082 -8.10644531 0.20532227 C-5.97165223 0.0564432 -5.97165223 0.0564432 -3.85449219 -0.58227539 C-2 -1 -2 -1 0 0 Z " fill="#4A487D" transform="translate(655,568)"/>
<path d="M0 0 C5.94 0 11.88 0 18 0 C18 7 18 7 16.5 8.9375 C16.005 9.288125 15.51 9.63875 15 10 C14.34 9.67 13.68 9.34 13 9 C13.99 6.69 14.98 4.38 16 2 C10.72 1.67 5.44 1.34 0 1 C0 0.67 0 0.34 0 0 Z " fill="#4E4E77" transform="translate(902,714)"/>
<path d="M0 0 C0.66 0 1.32 0 2 0 C1.84660156 0.66386719 1.69320312 1.32773437 1.53515625 2.01171875 C0.89226979 5.60155922 0.64966009 9.17795419 0.4375 12.8125 C0.39431641 13.50537109 0.35113281 14.19824219 0.30664062 14.91210938 C0.20138547 16.60788686 0.10027137 18.30392052 0 20 C-0.66 20 -1.32 20 -2 20 C-3.4878211 13.45358715 -2.49712093 7.50119637 -1 1 C-0.67 0.67 -0.34 0.34 0 0 Z " fill="#444071" transform="translate(245,687)"/>
<path d="M0 0 C1.01964844 -0.01224609 2.03929687 -0.02449219 3.08984375 -0.03710938 C4.55744141 -0.04000977 4.55744141 -0.04000977 6.0546875 -0.04296875 C6.95429199 -0.04707764 7.85389648 -0.05118652 8.78076172 -0.05541992 C11.125 0.1875 11.125 0.1875 14.125 2.1875 C-8.25 2.1875 -8.25 2.1875 -11.875 1.1875 C-9.46387261 -1.22362739 -3.23934528 0.00203221 0 0 Z " fill="#466FA9" transform="translate(399.875,304.8125)"/>
<path d="M0 0 C1.08187107 3.51178784 1.13346699 6.77552566 1.125 10.4375 C1.12757813 11.54996094 1.13015625 12.66242187 1.1328125 13.80859375 C1.01399223 16.66377492 0.65353269 19.22507946 0 22 C-0.99 22.33 -1.98 22.66 -3 23 C-2.69475674 19.35352047 -2.37959487 15.70796652 -2.0625 12.0625 C-1.93198242 10.50112305 -1.93198242 10.50112305 -1.79882812 8.90820312 C-1.71181641 7.91884766 -1.62480469 6.92949219 -1.53515625 5.91015625 C-1.456604 4.99371338 -1.37805176 4.07727051 -1.29711914 3.13305664 C-1 1 -1 1 0 0 Z " fill="#373463" transform="translate(514,828)"/>
<path d="M0 0 C0.66 0 1.32 0 2 0 C0.68 5.94 -0.64 11.88 -2 18 C-3.95775078 15.06337384 -4.56073149 13.4262944 -5 10 C-4.67 9.34 -4.34 8.68 -4 8 C-3.01 8 -2.02 8 -1 8 C-0.67 5.36 -0.34 2.72 0 0 Z " fill="#3A3369" transform="translate(704,697)"/>
<path d="M0 0 C0.33 0 0.66 0 1 0 C1.0270491 3.06255961 1.04686298 6.1248786 1.0625 9.1875 C1.07087891 10.05181641 1.07925781 10.91613281 1.08789062 11.80664062 C1.10396812 16.00286769 1.07559038 19.90936886 0 24 C-0.99 24.33 -1.98 24.66 -3 25 C-2.10738255 18.4966443 -2.10738255 18.4966443 -1.5 15.6875 C-0.910981 12.52152285 -0.66459074 9.39921187 -0.4375 6.1875 C-0.35371094 5.02605469 -0.26992188 3.86460937 -0.18359375 2.66796875 C-0.12300781 1.78753906 -0.06242188 0.90710938 0 0 Z " fill="#8199DD" transform="translate(702,223)"/>
<path d="M0 0 C0.66 0 1.32 0 2 0 C2.66 2.97 3.32 5.94 4 9 C3.34 9 2.68 9 2 9 C1.67 8.34 1.34 7.68 1 7 C0.34 8.98 -0.32 10.96 -1 13 C-1.66 13 -2.32 13 -3 13 C-2.01 8.71 -1.02 4.42 0 0 Z " fill="#4A4279" transform="translate(678,689)"/>
<path d="M0 0 C0 0.66 0 1.32 0 2 C-2.64 2.99 -5.28 3.98 -8 5 C-8 4.34 -8 3.68 -8 3 C-11.63 2.67 -15.26 2.34 -19 2 C-19 1.67 -19 1.34 -19 1 C-16.20837429 0.83262201 -13.41670379 0.66606598 -10.625 0.5 C-9.8309375 0.45230469 -9.036875 0.40460937 -8.21875 0.35546875 C-2.2265625 0 -2.2265625 0 0 0 Z " fill="#53547E" transform="translate(900,735)"/>
<path d="M0 0 C0.33 1.32 0.66 2.64 1 4 C-0.65234375 6.578125 -0.65234375 6.578125 -2.9375 9.25 C-4.06478516 10.58804688 -4.06478516 10.58804688 -5.21484375 11.953125 C-5.80394531 12.62859375 -6.39304687 13.3040625 -7 14 C-7.66 13.67 -8.32 13.34 -9 13 C-6.03 8.71 -3.06 4.42 0 0 Z " fill="#363461" transform="translate(621,670)"/>
<path d="M0 0 C0.66 0 1.32 0 2 0 C2.12375 0.969375 2.2475 1.93875 2.375 2.9375 C2.684375 4.4534375 2.684375 4.4534375 3 6 C3.66 6.33 4.32 6.66 5 7 C5.07654536 11.51617599 5.10228696 15.59085217 4 20 C3.67 20 3.34 20 3 20 C2.86722656 18.89140625 2.73445312 17.7828125 2.59765625 16.640625 C2.41940243 15.1770673 2.24100972 13.71352651 2.0625 12.25 C1.97548828 11.52039063 1.88847656 10.79078125 1.79882812 10.0390625 C1.37972591 6.62415558 0.882726 3.32396457 0 0 Z " fill="#32325B" transform="translate(917,685)"/>
<path d="M0 0 C3.96 0 7.92 0 12 0 C12 0.99 12 1.98 12 3 C7.83861737 3.08159574 4.0527516 2.98248524 0 2 C0 1.34 0 0.68 0 0 Z " fill="#2F3057" transform="translate(575,846)"/>
<path d="M0 0 C0.66 0.99 1.32 1.98 2 3 C0.9015258 4.46262592 -0.2040036 5.91995503 -1.3125 7.375 C-1.92738281 8.18710937 -2.54226563 8.99921875 -3.17578125 9.8359375 C-5 12 -5 12 -8 14 C-8 9.77679562 -5.92905729 8.92905729 -3 6 C-1.20679176 2.83354526 -1.20679176 2.83354526 0 0 Z " fill="#393867" transform="translate(412,824)"/>
<path d="M0 0 C0.33 0.99 0.66 1.98 1 3 C1.495 2.855625 1.99 2.71125 2.5 2.5625 C5.97752922 1.78005593 9.45955123 1.41305236 13 1 C13.33 1.66 13.66 2.32 14 3 C11.15161879 4.4241906 8.67212092 4.16995508 5.5 4.1875 C4.3346875 4.20167969 3.169375 4.21585938 1.96875 4.23046875 C-1 4 -1 4 -3 2 C-2.01 1.34 -1.02 0.68 0 0 Z " fill="#3C3A68" transform="translate(274,718)"/>
<path d="M0 0 C0.66 0.66 1.32 1.32 2 2 C-3.61 2 -9.22 2 -15 2 C-15 1.67 -15 1.34 -15 1 C-13.25215171 0.63536268 -11.50159498 0.2836922 -9.75 -0.0625 C-8.28820312 -0.35833984 -8.28820312 -0.35833984 -6.796875 -0.66015625 C-4.0923702 -0.98877625 -2.51701098 -0.97450646 0 0 Z " fill="#2B2E53" transform="translate(823,665)"/>
<path d="M0 0 C0.33 0 0.66 0 1 0 C1 7.59 1 15.18 1 23 C0.01 22.67 -0.98 22.34 -2 22 C-1.67 21.34 -1.34 20.68 -1 20 C-0.84876169 18.4804236 -0.75118307 16.95527498 -0.68359375 15.4296875 C-0.64169922 14.53378906 -0.59980469 13.63789063 -0.55664062 12.71484375 C-0.49766602 11.30912109 -0.49766602 11.30912109 -0.4375 9.875 C-0.39431641 8.93011719 -0.35113281 7.98523438 -0.30664062 7.01171875 C-0.20040928 4.67462908 -0.09836824 2.3374317 0 0 Z " fill="#8589D3" transform="translate(622,460)"/>
<path d="M0 0 C0.66 0.33 1.32 0.66 2 1 C0.6062718 5.43458973 -1.60582235 7.87378374 -5 11 C-3.77472971 6.94718288 -2.30119506 3.55639236 0 0 Z " fill="#5787C2" transform="translate(310,241)"/>
<path d="M0 0 C0.33 0 0.66 0 1 0 C1 2.97 1 5.94 1 9 C0.34 9 -0.32 9 -1 9 C-1 7.35 -1 5.7 -1 4 C-2.65 4.33 -4.3 4.66 -6 5 C-5.195625 4.360625 -4.39125 3.72125 -3.5625 3.0625 C-1.7249496 1.59396498 -1.7249496 1.59396498 0 0 Z " fill="#363468" transform="translate(496,837)"/>
<path d="M0 0 C0.66 0 1.32 0 2 0 C2 0.66 2 1.32 2 2 C2.66 2 3.32 2 4 2 C4.33 1.34 4.66 0.68 5 0 C5.66 0 6.32 0 7 0 C7 2.31 7 4.62 7 7 C4.36 5.35 1.72 3.7 -1 2 C-0.67 1.34 -0.34 0.68 0 0 Z " fill="#464375" transform="translate(491,789)"/>
<path d="M0 0 C-0.33 0.99 -0.66 1.98 -1 3 C-1.639375 3.309375 -2.27875 3.61875 -2.9375 3.9375 C-5.489354 5.25209145 -5.87307058 6.42416132 -7 9 C-7.66 9.66 -8.32 10.32 -9 11 C-9.33 10.01 -9.66 9.02 -10 8 C-8.85546875 6.2109375 -8.85546875 6.2109375 -7.1875 4.375 C-6.64480469 3.76398437 -6.10210937 3.15296875 -5.54296875 2.5234375 C-3.66953524 0.67371834 -2.65390687 0 0 0 Z " fill="#373364" transform="translate(350,681)"/>
<path d="M0 0 C0.66 0.33 1.32 0.66 2 1 C1.34 3.97 0.68 6.94 0 10 C-0.66 10 -1.32 10 -2 10 C-2.6875 6.6875 -2.6875 6.6875 -3 3 C-1.5625 1.0625 -1.5625 1.0625 0 0 Z " fill="#4E457E" transform="translate(658,705)"/>
<path d="M0 0 C0 2.31 0 4.62 0 7 C-0.66 6.34 -1.32 5.68 -2 5 C-3.32 5.99 -4.64 6.98 -6 8 C-5.57004265 4.99029853 -3.66008917 0 0 0 Z " fill="#434172" transform="translate(779,727)"/>
<path d="M0 0 C1.90318884 2.85478326 2.4619099 4.41941308 3.125 7.6875 C3.29257812 8.49574219 3.46015625 9.30398438 3.6328125 10.13671875 C3.75398437 10.75160156 3.87515625 11.36648438 4 12 C3.01 12.495 3.01 12.495 2 13 C-0.24828052 8.50343896 -0.16682272 4.92127034 0 0 Z " fill="#443F71" transform="translate(683,703)"/>
<path d="M0 0 C0.99 0.33 1.98 0.66 3 1 C1.02 3.97 -0.96 6.94 -3 10 C-4 6 -4 6 -2.0625 2.75 C-1.381875 1.8425 -0.70125 0.935 0 0 Z " fill="#3C376A" transform="translate(575,704)"/>
<path d="M0 0 C0.66 0.33 1.32 0.66 2 1 C2 1.99 2 2.98 2 4 C-2.34285714 8 -2.34285714 8 -5 8 C-3.62845496 5.04590299 -2.01136276 2.55991624 0 0 Z " fill="#363860" transform="translate(508,856)"/>
<path d="M0 0 C0.99 0.33 1.98 0.66 3 1 C2.67 1.33 2.34 1.66 2 2 C1.62947661 7.17735677 1.62947661 7.17735677 3 12 C2.34 12.66 1.68 13.32 1 14 C0 13 0 13 -0.09765625 10.05859375 C-0.08605469 8.86363281 -0.07445312 7.66867187 -0.0625 6.4375 C-0.05347656 5.23996094 -0.04445313 4.04242187 -0.03515625 2.80859375 C-0.02355469 1.88175781 -0.01195312 0.95492187 0 0 Z " fill="#363362" transform="translate(262,695)"/>
<path d="M0 0 C0.66 0 1.32 0 2 0 C1.38545304 3.99455527 -0.70646737 6.74466336 -3 10 C-3.33 9.01 -3.66 8.02 -4 7 C-2.625 4.4375 -2.625 4.4375 -1 2 C-0.67 1.34 -0.34 0.68 0 0 Z " fill="#8699D6" transform="translate(695,262)"/>
<path d="M0 0 C0.66 0.66 1.32 1.32 2 2 C1.71125 2.556875 1.4225 3.11375 1.125 3.6875 C-0.0413253 6.08494645 -1.0339881 8.51596939 -2 11 C-2.66 11 -3.32 11 -4 11 C-3.5247412 9.35303396 -3.04468109 7.70745272 -2.5625 6.0625 C-2.29566406 5.14597656 -2.02882813 4.22945312 -1.75390625 3.28515625 C-1 1 -1 1 0 0 Z " fill="#444170" transform="translate(722,699)"/>
<path d="M0 0 C1.485 0.99 1.485 0.99 3 2 C2.34 5.96 1.68 9.92 1 14 C0.67 14 0.34 14 0 14 C0 9.38 0 4.76 0 0 Z " fill="#332F5F" transform="translate(826,693)"/>
<path d="M0 0 C1.73662334 3.22515763 2.8905928 6.51329166 4 10 C3.01 10 2.02 10 1 10 C0.63883954 8.5225254 0.28624952 7.04295325 -0.0625 5.5625 C-0.25972656 4.73878906 -0.45695313 3.91507813 -0.66015625 3.06640625 C-0.82837891 2.04353516 -0.82837891 2.04353516 -1 1 C-0.67 0.67 -0.34 0.34 0 0 Z " fill="#3C396A" transform="translate(649,680)"/>
<path d="M0 0 C1.32 1.65 2.64 3.3 4 5 C2.68 6.65 1.36 8.3 0 10 C0 6.7 0 3.4 0 0 Z " fill="#3F3E6C" transform="translate(825,668)"/>
<path d="M0 0 C0.66 0 1.32 0 2 0 C2 2.97 2 5.94 2 9 C0.4375 7.3125 0.4375 7.3125 -1 5 C-0.6875 2.25 -0.6875 2.25 0 0 Z " fill="#383765" transform="translate(168,698)"/>
<path d="M0 0 C0.66 0.33 1.32 0.66 2 1 C-0.31 3.64 -2.62 6.28 -5 9 C-5 4.61031544 -2.87194899 3.23094261 0 0 Z " fill="#7B92D6" transform="translate(688,275)"/>
<path d="M0 0 C2.02855159 2.02855159 3.00835839 3.33019566 4 6 C3.625 8.75 3.625 8.75 3 11 C0.43383368 7.15075052 0.44902324 4.5650696 0 0 Z " fill="#393764" transform="translate(647,799)"/>
<path d="M0 0 C0 0.99 0 1.98 0 3 C-1.65 3.66 -3.3 4.32 -5 5 C-5.66 4.34 -6.32 3.68 -7 3 C-2.25 0 -2.25 0 0 0 Z " fill="#363860" transform="translate(471,787)"/>
<path d="M0 0 C0.33 0 0.66 0 1 0 C1.17835515 4.54805635 0.99785435 7.8794254 -1 12 C-1.66 12 -2.32 12 -3 12 C-2.01 8.04 -1.02 4.08 0 0 Z " fill="#4A4974" transform="translate(669,719)"/>
<path d="M0 0 C0.66 0.33 1.32 0.66 2 1 C-0.97 4.96 -0.97 4.96 -4 9 C-4.33 8.01 -4.66 7.02 -5 6 C-2.66666667 1.33333333 -2.66666667 1.33333333 0 0 Z " fill="#2C4F7B" transform="translate(314,234)"/>
<path d="M0 0 C0.66 0.66 1.32 1.32 2 2 C0.68 3.65 -0.64 5.3 -2 7 C-2.99 6.67 -3.98 6.34 -5 6 C-4.34 6 -3.68 6 -3 6 C-2.87625 5.38125 -2.7525 4.7625 -2.625 4.125 C-2 2 -2 2 0 0 Z " fill="#3B3769" transform="translate(616,801)"/>
<path d="M0 0 C0.99 0.33 1.98 0.66 3 1 C0.03 3.475 0.03 3.475 -3 6 C-3 3 -3 3 -1.5 1.3125 C-0.7575 0.6628125 -0.7575 0.6628125 0 0 Z " fill="#363265" transform="translate(513,681)"/>
</svg>
